<svg 
 xmlns="http://www.w3.org/2000/svg"
 xmlns:xlink="http://www.w3.org/1999/xlink"
 width="813px" height="609px">
<defs>
<linearGradient id="PSgrad_0" x1="0%" x2="64.279%" y1="0%" y2="76.604%">
  <stop offset="0%" stop-color="rgb(215,10,132)" stop-opacity="1" />
  <stop offset="100%" stop-color="rgb(81,18,127)" stop-opacity="1" />
</linearGradient>
<filter id="Filter_0">
    <feFlood flood-color="rgb(255, 255, 255)" flood-opacity="1" result="floodOut" />
    <feComposite operator="atop" in="floodOut" in2="SourceGraphic" result="compOut" />
    <feBlend mode="normal" in="compOut" in2="SourceGraphic" />
</filter>

</defs>
<path fill-rule="evenodd"  fill="rgb(255, 0, 179)"
 d="M163.483,453.972 L223.560,522.080 C229.405,528.707 228.772,538.818 222.145,544.663 L154.036,604.740 C147.409,610.585 137.298,609.951 131.453,603.325 L71.377,535.216 C65.531,528.589 66.165,518.478 72.792,512.633 L140.900,452.557 C147.527,446.711 157.638,447.345 163.483,453.972 Z"/>
<path fill="url(#PSgrad_0)"
 d="M163.483,453.972 L223.560,522.080 C229.405,528.707 228.772,538.818 222.145,544.663 L154.036,604.740 C147.409,610.585 137.298,609.951 131.453,603.325 L71.377,535.216 C65.531,528.589 66.165,518.478 72.792,512.633 L140.900,452.557 C147.527,446.711 157.638,447.345 163.483,453.972 Z"/>
<path fill-rule="evenodd"  fill="rgb(255, 0, 179)"
 d="M94.1000,-0.000 L718.000,-0.000 C770.467,-0.000 813.000,42.533 813.000,94.1000 L813.000,444.000 C813.000,496.467 770.467,539.000 718.000,539.000 L94.1000,539.000 C42.533,539.000 -0.000,496.467 -0.000,444.000 L-0.000,94.1000 C-0.000,42.533 42.533,-0.000 94.1000,-0.000 Z"/>
<path fill="url(#PSgrad_0)"
 d="M94.1000,-0.000 L718.000,-0.000 C770.467,-0.000 813.000,42.533 813.000,94.1000 L813.000,444.000 C813.000,496.467 770.467,539.000 718.000,539.000 L94.1000,539.000 C42.533,539.000 -0.000,496.467 -0.000,444.000 L-0.000,94.1000 C-0.000,42.533 42.533,-0.000 94.1000,-0.000 Z"/>
<g filter="url(#Filter_0)">
<path fill-rule="evenodd"  fill="rgb(255, 0, 179)"
 d="M151.1000,96.000 L670.998,96.000 C709.658,96.000 740.998,127.340 740.998,165.1000 L740.998,389.989 C740.998,428.649 709.658,459.989 670.998,459.989 L151.1000,459.989 C113.340,459.989 81.1000,428.649 81.1000,389.989 L81.1000,165.1000 C81.1000,127.340 113.340,96.000 151.1000,96.000 Z"/>
</g>
<path fill-rule="evenodd"  fill="rgb(255, 0, 179)"
 d="M272.000,185.1000 C310.660,185.1000 342.000,234.353 342.000,294.000 C342.000,353.647 310.660,402.000 272.000,402.000 C233.340,402.000 201.1000,353.647 201.1000,294.000 C201.1000,234.353 233.340,185.1000 272.000,185.1000 Z"/>
<path fill="url(#PSgrad_0)"
 d="M272.000,185.1000 C310.660,185.1000 342.000,234.353 342.000,294.000 C342.000,353.647 310.660,402.000 272.000,402.000 C233.340,402.000 201.1000,353.647 201.1000,294.000 C201.1000,234.353 233.340,185.1000 272.000,185.1000 Z"/>
<path fill-rule="evenodd"  fill="rgb(255, 0, 179)"
 d="M572.000,181.1000 C610.660,181.1000 642.000,230.353 642.000,290.000 C642.000,349.647 610.660,398.000 572.000,398.000 C533.340,398.000 501.1000,349.647 501.1000,290.000 C501.1000,230.353 533.340,181.1000 572.000,181.1000 Z"/>
<path fill="url(#PSgrad_0)"
 d="M572.000,181.1000 C610.660,181.1000 642.000,230.353 642.000,290.000 C642.000,349.647 610.660,398.000 572.000,398.000 C533.340,398.000 501.1000,349.647 501.1000,290.000 C501.1000,230.353 533.340,181.1000 572.000,181.1000 Z"/>
</svg>